<svg width="28" height="26" viewBox="0 0 28 26" fill="none" xmlns="http://www.w3.org/2000/svg">
<path d="M11.6667 16.25L11.6667 13" stroke="#33363F" stroke-width="2" stroke-linecap="round"/>
<path d="M16.3333 16.25L16.3333 13" stroke="#33363F" stroke-width="2" stroke-linecap="round"/>
<path d="M3.5 7.58331H24.5C23.0955 7.58331 22.3933 7.58331 21.8889 7.92037C21.6705 8.06629 21.483 8.25379 21.3371 8.47217C21 8.97662 21 9.67885 21 11.0833V17.6666C21 19.5523 21 20.4951 20.4142 21.0809C19.8284 21.6666 18.8856 21.6666 17 21.6666H11C9.11438 21.6666 8.17157 21.6666 7.58579 21.0809C7 20.4951 7 19.5523 7 17.6666V11.0833C7 9.67885 7 8.97662 6.66294 8.47217C6.51702 8.25379 6.32952 8.06629 6.11114 7.92037C5.60669 7.58331 4.90446 7.58331 3.5 7.58331Z" stroke="#33363F" stroke-width="2" stroke-linecap="round"/>
<path d="M11.7461 3.65147C11.879 3.5363 12.172 3.43452 12.5795 3.36193C12.987 3.28935 13.4863 3.25 13.9999 3.25C14.5136 3.25 15.0129 3.28935 15.4204 3.36193C15.8279 3.43452 16.1208 3.5363 16.2537 3.65147" stroke="#33363F" stroke-width="2" stroke-linecap="round"/>
</svg>
