<svg width="26" height="23" viewBox="0 0 26 23" fill="none" xmlns="http://www.w3.org/2000/svg">
<path d="M21.125 5.03125H18.3097L16.9254 3.19484C16.8512 3.09651 16.7508 3.01588 16.633 2.96009C16.5152 2.9043 16.3836 2.87507 16.25 2.875H9.75C9.61637 2.87507 9.48483 2.9043 9.36702 2.96009C9.24921 3.01588 9.14877 3.09651 9.07461 3.19484L7.6893 5.03125H4.875C4.22853 5.03125 3.60855 5.25843 3.15143 5.6628C2.69431 6.06718 2.4375 6.61563 2.4375 7.1875V17.25C2.4375 17.8219 2.69431 18.3703 3.15143 18.7747C3.60855 19.1791 4.22853 19.4062 4.875 19.4062H21.125C21.7715 19.4062 22.3915 19.1791 22.8486 18.7747C23.3057 18.3703 23.5625 17.8219 23.5625 17.25V7.1875C23.5625 6.61563 23.3057 6.06718 22.8486 5.6628C22.3915 5.25843 21.7715 5.03125 21.125 5.03125ZM21.9375 17.25C21.9375 17.4406 21.8519 17.6234 21.6995 17.7582C21.5472 17.893 21.3405 17.9688 21.125 17.9688H4.875C4.65951 17.9688 4.45285 17.893 4.30048 17.7582C4.1481 17.6234 4.0625 17.4406 4.0625 17.25V7.1875C4.0625 6.99688 4.1481 6.81406 4.30048 6.67927C4.45285 6.54448 4.65951 6.46875 4.875 6.46875H8.125C8.2588 6.46883 8.39055 6.43967 8.50855 6.38388C8.62655 6.32808 8.72715 6.24737 8.80141 6.14891L10.1847 4.3125H15.8143L17.1986 6.14891C17.2729 6.24737 17.3734 6.32808 17.4914 6.38388C17.6094 6.43967 17.7412 6.46883 17.875 6.46875H21.125C21.3405 6.46875 21.5472 6.54448 21.6995 6.67927C21.8519 6.81406 21.9375 6.99688 21.9375 7.1875V17.25ZM13 7.90625C12.1162 7.90625 11.2522 8.1381 10.5173 8.57247C9.78241 9.00685 9.20964 9.62424 8.87141 10.3466C8.53318 11.0689 8.44469 11.8638 8.61712 12.6306C8.78954 13.3974 9.21515 14.1018 9.84012 14.6547C10.4651 15.2075 11.2613 15.584 12.1282 15.7365C12.995 15.8891 13.8936 15.8108 14.7101 15.5116C15.5267 15.2124 16.2246 14.7057 16.7156 14.0556C17.2067 13.4055 17.4688 12.6412 17.4688 11.8594C17.4674 10.8113 16.9962 9.8065 16.1584 9.06541C15.3206 8.32431 14.1848 7.90744 13 7.90625ZM13 14.375C12.4376 14.375 11.8877 14.2275 11.4201 13.951C10.9524 13.6746 10.588 13.2817 10.3727 12.8221C10.1575 12.3624 10.1012 11.8566 10.2109 11.3686C10.3206 10.8806 10.5915 10.4324 10.9892 10.0806C11.3869 9.72874 11.8936 9.48915 12.4452 9.39209C12.9968 9.29502 13.5686 9.34484 14.0883 9.53524C14.6079 9.72564 15.052 10.0481 15.3645 10.4618C15.677 10.8755 15.8438 11.3618 15.8438 11.8594C15.8438 12.5266 15.5441 13.1664 15.0108 13.6382C14.4775 14.11 13.7542 14.375 13 14.375Z" fill="#343330"/>
</svg>
