<svg width="28" height="26" viewBox="0 0 28 26" fill="none" xmlns="http://www.w3.org/2000/svg">
<path d="M21.875 11.375C21.875 11.5905 21.7828 11.7972 21.6187 11.9495C21.4546 12.1019 21.2321 12.1875 21 12.1875H16.625C16.3929 12.1875 16.1704 12.1019 16.0063 11.9495C15.8422 11.7972 15.75 11.5905 15.75 11.375C15.75 11.1595 15.8422 10.9528 16.0063 10.8005C16.1704 10.6481 16.3929 10.5625 16.625 10.5625H21C21.2321 10.5625 21.4546 10.6481 21.6187 10.8005C21.7828 10.9528 21.875 11.1595 21.875 11.375ZM21 13.8125H16.625C16.3929 13.8125 16.1704 13.8981 16.0063 14.0505C15.8422 14.2028 15.75 14.4095 15.75 14.625C15.75 14.8405 15.8422 15.0472 16.0063 15.1995C16.1704 15.3519 16.3929 15.4375 16.625 15.4375H21C21.2321 15.4375 21.4546 15.3519 21.6187 15.1995C21.7828 15.0472 21.875 14.8405 21.875 14.625C21.875 14.4095 21.7828 14.2028 21.6187 14.0505C21.4546 13.8981 21.2321 13.8125 21 13.8125ZM25.375 5.6875V20.3125C25.375 20.7435 25.1906 21.1568 24.8624 21.4615C24.5342 21.7663 24.0891 21.9375 23.625 21.9375H4.375C3.91087 21.9375 3.46575 21.7663 3.13756 21.4615C2.80937 21.1568 2.625 20.7435 2.625 20.3125V5.6875C2.625 5.25652 2.80937 4.8432 3.13756 4.53845C3.46575 4.2337 3.91087 4.0625 4.375 4.0625H23.625C24.0891 4.0625 24.5342 4.2337 24.8624 4.53845C25.1906 4.8432 25.375 5.25652 25.375 5.6875ZM23.625 20.3125V5.6875H4.375V20.3125H23.625ZM14.8466 16.8594C14.9046 17.0681 14.8709 17.2897 14.753 17.4754C14.635 17.6611 14.4425 17.7957 14.2177 17.8496C13.9928 17.9035 13.7542 17.8722 13.5542 17.7627C13.3542 17.6532 13.2093 17.4744 13.1512 17.2656C12.8636 16.2236 11.7228 15.4375 10.4989 15.4375C9.275 15.4375 8.13531 16.2236 7.84656 17.2656C7.78855 17.4744 7.6436 17.6532 7.44361 17.7627C7.24362 17.8722 7.00497 17.9035 6.78016 17.8496C6.55534 17.7957 6.36279 17.6611 6.24484 17.4754C6.1269 17.2897 6.09323 17.0681 6.15125 16.8594C6.43519 15.878 7.10637 15.0318 8.03141 14.4889C7.53984 14.0352 7.20443 13.4561 7.06769 12.8251C6.93095 12.1942 6.99905 11.5397 7.26334 10.9447C7.52763 10.3497 7.97622 9.84102 8.55225 9.48305C9.12827 9.12508 9.80578 8.93398 10.4989 8.93398C11.192 8.93398 11.8695 9.12508 12.4456 9.48305C13.0216 9.84102 13.4702 10.3497 13.7345 10.9447C13.9988 11.5397 14.0669 12.1942 13.9301 12.8251C13.7934 13.4561 13.458 14.0352 12.9664 14.4889C13.8924 15.031 14.5642 15.8775 14.8477 16.8594H14.8466ZM10.5 13.8125C10.8461 13.8125 11.1845 13.7172 11.4722 13.5386C11.76 13.3601 11.9843 13.1063 12.1168 12.8094C12.2492 12.5124 12.2839 12.1857 12.2164 11.8705C12.1489 11.5553 11.9822 11.2657 11.7374 11.0385C11.4927 10.8112 11.1809 10.6564 10.8414 10.5937C10.5019 10.531 10.1501 10.5632 9.8303 10.6862C9.51053 10.8092 9.23722 11.0175 9.04493 11.2847C8.85264 11.5519 8.75 11.8661 8.75 12.1875C8.75 12.6185 8.93437 13.0318 9.26256 13.3365C9.59075 13.6413 10.0359 13.8125 10.5 13.8125Z" fill="#343330"/>
</svg>
