<svg width="28" height="26" viewBox="0 0 28 26" fill="none" xmlns="http://www.w3.org/2000/svg">
<path d="M2.33325 13L1.57564 12.3473L1.01331 13L1.57564 13.6527L2.33325 13ZM12.8333 14C13.3855 14 13.8333 13.5523 13.8333 13C13.8333 12.4477 13.3855 12 12.8333 12V14ZM6.24231 6.9306L1.57564 12.3473L3.09086 13.6527L7.75753 8.23602L6.24231 6.9306ZM1.57564 13.6527L6.24231 19.0694L7.75753 17.7639L3.09086 12.3473L1.57564 13.6527ZM2.33325 14H12.8333V12H2.33325V14Z" fill="#33363F"/>
<path d="M11.6667 8.80961V7.76192C11.6667 6.12584 11.6667 5.30779 12.1482 4.74606C12.6297 4.18432 13.4381 4.05921 15.055 3.80898L18.7491 3.23728C21.964 2.73973 23.5715 2.49095 24.6191 3.38892C25.6667 4.28688 25.6667 5.91348 25.6667 9.16669V16.8334C25.6667 20.0866 25.6667 21.7132 24.6191 22.6111C23.5715 23.5091 21.964 23.2603 18.7491 22.7628L15.055 22.1911C13.4381 21.9408 12.6297 21.8157 12.1482 21.254C11.6667 20.6923 11.6667 19.8742 11.6667 18.2381V17.4048" stroke="#33363F" stroke-width="2"/>
</svg>
