<svg width="40" height="40" viewBox="0 0 40 40" fill="none" xmlns="http://www.w3.org/2000/svg">
<path d="M22.5422 7.17655C22.5846 7.01791 22.6579 6.86919 22.7578 6.73888C22.8578 6.60857 22.9824 6.49923 23.1246 6.4171C23.2668 6.33497 23.4238 6.28167 23.5866 6.26023C23.7494 6.2388 23.9148 6.24965 24.0735 6.29218C26.3907 6.89678 28.505 8.10818 30.1984 9.80161C31.8918 11.495 33.1032 13.6093 33.7078 15.9266C33.7504 16.0852 33.7612 16.2506 33.7398 16.4134C33.7183 16.5762 33.665 16.7332 33.5829 16.8754C33.5008 17.0176 33.3914 17.1422 33.2611 17.2422C33.1308 17.3421 32.9821 17.4154 32.8235 17.4578C32.7179 17.4855 32.6092 17.4997 32.5 17.5C32.2246 17.5 31.9568 17.409 31.7384 17.2411C31.52 17.0733 31.3631 16.838 31.2922 16.5719C30.7991 14.6802 29.8104 12.9542 28.4281 11.5719C27.0458 10.1896 25.3198 9.20091 23.4281 8.7078C23.2694 8.66554 23.1205 8.59239 22.99 8.49253C22.8595 8.39267 22.75 8.26807 22.6677 8.12585C22.5854 7.98363 22.532 7.82659 22.5105 7.6637C22.4889 7.50081 22.4997 7.33527 22.5422 7.17655ZM22.1781 13.7078C24.3328 14.2828 25.7172 15.6672 26.2922 17.8219C26.3631 18.088 26.52 18.3233 26.7384 18.4911C26.9568 18.659 27.2246 18.75 27.5 18.75C27.6092 18.7497 27.7179 18.7355 27.8235 18.7078C27.9821 18.6654 28.1308 18.5921 28.2611 18.4922C28.3914 18.3922 28.5008 18.2676 28.5829 18.1254C28.665 17.9832 28.7183 17.8262 28.7398 17.6634C28.7612 17.5006 28.7504 17.3352 28.7078 17.1766C27.9078 14.1828 25.8172 12.0922 22.8235 11.2922C22.5031 11.2066 22.1619 11.2518 21.8749 11.4178C21.5879 11.5838 21.3786 11.857 21.293 12.1773C21.2074 12.4977 21.2526 12.8389 21.4186 13.1259C21.5846 13.4129 21.8578 13.6222 22.1781 13.7078ZM34.9813 28.6062C34.7027 30.7235 33.6629 32.6669 32.0561 34.0735C30.4494 35.4802 28.3855 36.2538 26.25 36.25C13.8438 36.25 3.75001 26.1562 3.75001 13.75C3.74619 11.6145 4.51984 9.55065 5.92647 7.94389C7.33311 6.33713 9.27653 5.29734 11.3938 5.01874C11.9292 4.95337 12.4713 5.0629 12.9394 5.33099C13.4074 5.59908 13.7762 6.01134 13.9906 6.50624L17.2906 13.8734V13.8922C17.4548 14.271 17.5227 14.6846 17.488 15.096C17.4534 15.5075 17.3174 15.9039 17.0922 16.25C17.0641 16.2922 17.0344 16.3312 17.0031 16.3703L13.75 20.2266C14.9203 22.6047 17.4078 25.0703 19.8172 26.2437L23.6203 23.0078C23.6577 22.9764 23.6968 22.9472 23.7375 22.9203C24.0833 22.6897 24.4811 22.5489 24.895 22.5107C25.3088 22.4725 25.7257 22.5381 26.1078 22.7015L26.1281 22.7109L33.4891 26.0094C33.9848 26.2231 34.3981 26.5915 34.6671 27.0596C34.9361 27.5277 35.0463 28.0703 34.9813 28.6062ZM32.5 28.2937C32.5 28.2937 32.4891 28.2937 32.4828 28.2937L25.1391 25.0047L21.3344 28.2406C21.2975 28.2719 21.2589 28.3011 21.2188 28.3281C20.859 28.5681 20.4431 28.7107 20.0118 28.7419C19.5805 28.7731 19.1484 28.6919 18.7578 28.5062C15.8313 27.0922 12.9141 24.1969 11.4985 21.3015C11.311 20.9138 11.2269 20.4842 11.2543 20.0545C11.2816 19.6247 11.4196 19.2092 11.6547 18.8484C11.6812 18.8061 11.711 18.7658 11.7438 18.7281L15 14.8672L11.7188 7.52343C11.7181 7.51719 11.7181 7.51091 11.7188 7.50468C10.2035 7.70233 8.81232 8.44556 7.80566 9.59517C6.79899 10.7448 6.24592 12.2219 6.25001 13.75C6.2558 19.0525 8.3648 24.1363 12.1143 27.8857C15.8637 31.6352 20.9475 33.7442 26.25 33.75C27.7771 33.7552 29.2539 33.2041 30.4042 32.1996C31.5544 31.1951 32.2995 29.8061 32.5 28.2922V28.2937Z" fill="#343330"/>
</svg>
