<svg width="36" height="37" viewBox="0 0 36 37" fill="none" xmlns="http://www.w3.org/2000/svg">
<path d="M21.1757 4.88969L22.171 4.79285V4.79285L21.1757 4.88969ZM20.7646 3.34282L21.4366 2.60227V2.60227L20.7646 3.34282ZM21.2567 5.72189L22.252 5.62505V5.62505L21.2567 5.72189ZM22.0584 8.44288L22.4361 7.51695L22.4361 7.51695L22.0584 8.44288ZM24.5345 7.05893L25.1781 7.8243L24.5345 7.05893ZM25.0616 6.61567L24.4511 5.82366L24.4343 5.83663L24.418 5.85031L25.0616 6.61567ZM25.0617 6.61566L25.6722 7.40767L25.689 7.3947L25.7053 7.38102L25.0617 6.61566ZM26.467 5.78373L26.417 6.78248L26.467 5.78373ZM27.7823 6.75168L27.0656 7.44904V7.44904L27.7823 6.75168ZM29.4996 8.5167L28.7829 9.21406V9.21406L29.4996 8.5167ZM30.3958 9.79558L29.397 9.84524V9.84524L30.3958 9.79558ZM29.6309 11.157L30.4133 11.7799L30.4133 11.7799L29.6309 11.157ZM29.0289 11.9132L28.2466 11.2904V11.2904L29.0289 11.9132ZM27.7506 14.3543L28.6724 13.9667L28.6724 13.9667L27.7506 14.3543ZM30.3892 15.1484L30.4914 14.1536V14.1536L30.3892 15.1484ZM31.2045 15.2322L31.1022 16.2269L31.2045 15.2322ZM32.7424 15.6492L32 16.3192V16.3192L32.7424 15.6492ZM32.7424 21.3509L33.4847 22.0209L33.4847 22.0209L32.7424 21.3509ZM31.2045 21.7679L31.3067 22.7627L31.2045 21.7679ZM30.3897 21.8517L30.492 22.8464L30.3897 21.8517ZM27.7512 22.6458L28.673 23.0334L28.673 23.0334L27.7512 22.6458ZM29.0295 25.0868L28.2471 25.7096L28.2471 25.7096L29.0295 25.0868ZM29.631 25.8424L30.4133 25.2195L30.4133 25.2195L29.631 25.8424ZM30.3958 27.2038L31.3946 27.2535V27.2535L30.3958 27.2038ZM29.4997 28.4827L28.783 27.7853L29.4997 28.4827ZM27.7824 30.2477L27.0656 29.5504L27.7824 30.2477ZM26.467 31.2157L26.517 32.2144H26.517L26.467 31.2157ZM25.0617 30.3837L25.7053 29.6184H25.7053L25.0617 30.3837ZM24.5346 29.9405L23.891 30.7058H23.891L24.5346 29.9405ZM21.2568 31.2775L20.2615 31.1807V31.1807L21.2568 31.2775ZM21.1757 32.1104L22.171 32.2072V32.2072L21.1757 32.1104ZM20.7646 33.6573L20.0926 32.9167L20.0926 32.9167L20.7646 33.6573ZM15.2354 33.6573L15.9074 32.9167L15.9074 32.9167L15.2354 33.6573ZM14.8242 32.1104L15.8195 32.0135V32.0135L14.8242 32.1104ZM14.7433 31.2781L13.748 31.375V31.375L14.7433 31.2781ZM13.9416 28.5571L14.3193 27.6312L13.9416 28.5571ZM11.4655 29.9411L12.1091 30.7064L11.4655 29.9411ZM10.9382 30.3844L11.5818 31.1498V31.1498L10.9382 30.3844ZM9.53292 31.2164L9.48298 32.2151H9.48299L9.53292 31.2164ZM8.21758 30.2484L7.50085 30.9458L8.21758 30.2484ZM6.50027 28.4834L7.21699 27.786L7.21699 27.786L6.50027 28.4834ZM6.36899 25.8431L5.58662 25.2202L5.58662 25.2202L6.36899 25.8431ZM6.97097 25.0869L6.1886 24.464L6.97097 25.0869ZM8.24931 22.6458L7.32748 23.0334H7.32748L8.24931 22.6458ZM5.61072 21.8517L5.50848 22.8465H5.50848L5.61072 21.8517ZM4.79552 21.7679L4.89776 20.7732L4.79552 21.7679ZM3.25763 21.3509L2.51525 22.0209L2.51525 22.0209L3.25763 21.3509ZM3 19.7784H2H3ZM3 17.2217H4H3ZM3.25763 15.6492L4 16.3192L4 16.3192L3.25763 15.6492ZM4.79551 15.2322V14.2322H4.74426L4.69327 14.2374L4.79551 15.2322ZM4.79552 15.2322V16.2322H4.84678L4.89776 16.2269L4.79552 15.2322ZM5.61128 15.1483L5.71352 16.1431H5.71352L5.61128 15.1483ZM8.24987 14.3542L7.32804 13.9666L7.32804 13.9666L8.24987 14.3542ZM6.97153 11.9132L6.18917 12.536L6.18917 12.536L6.97153 11.9132ZM6.36905 11.1563L7.15142 10.5335V10.5335L6.36905 11.1563ZM5.60417 9.79488L6.60293 9.84454V9.84454L5.60417 9.79488ZM6.50033 8.516L7.21706 9.21336L6.50033 8.516ZM8.21765 6.75098L7.50092 6.05363V6.05363L8.21765 6.75098ZM9.53298 5.78303L9.48305 4.78428L9.53298 5.78303ZM10.9383 6.61497L10.2947 7.38033L10.2947 7.38033L10.9383 6.61497ZM11.4655 7.05833L12.1091 6.29297V6.29297L11.4655 7.05833ZM13.9417 8.44227L14.3194 9.3682V9.3682L13.9417 8.44227ZM14.7433 5.72128L15.7386 5.81813V5.81813L14.7433 5.72128ZM14.8242 4.88969L15.8195 4.98653V4.98653L14.8242 4.88969ZM15.2354 3.34282L15.9074 4.08337V4.08337L15.2354 3.34282ZM22.171 4.79285C22.1319 4.39036 22.0952 3.99274 22.0208 3.66827C21.94 3.31596 21.7893 2.92238 21.4366 2.60227L20.0926 4.08337C20.0257 4.02271 20.0389 3.97342 20.0713 4.11511C20.1102 4.28465 20.1361 4.53074 20.1804 4.98653L22.171 4.79285ZM22.252 5.62505L22.171 4.79285L20.1804 4.98653L20.2614 5.81873L22.252 5.62505ZM22.4361 7.51695C22.6139 7.58947 22.5675 7.73489 22.479 7.37895C22.3908 7.02381 22.3362 6.48986 22.252 5.62505L20.2614 5.81873C20.339 6.61586 20.4056 7.32837 20.538 7.86122C20.6702 8.39326 20.9438 9.06821 21.6807 9.36881L22.4361 7.51695ZM23.8909 6.29357C23.2259 6.85279 22.8134 7.1962 22.5019 7.3883C22.1898 7.58083 22.2583 7.44442 22.4361 7.51695L21.6807 9.36881C22.4176 9.66941 23.0852 9.37836 23.5518 9.09057C24.0191 8.80235 24.5651 8.33975 25.1781 7.8243L23.8909 6.29357ZM24.418 5.85031L23.8909 6.29357L25.1781 7.8243L25.7052 7.38103L24.418 5.85031ZM24.4511 5.82365L24.4511 5.82366L25.6722 7.40768L25.6722 7.40767L24.4511 5.82365ZM26.5169 4.78498C26.0319 4.76073 25.6408 4.93895 25.3311 5.13725C25.0455 5.32005 24.7348 5.58393 24.4181 5.8503L25.7053 7.38102C26.0636 7.07969 26.2592 6.91778 26.4094 6.82164C26.5354 6.74099 26.5094 6.7871 26.417 6.78248L26.5169 4.78498ZM28.499 6.05433C28.2104 5.75769 27.9276 5.46414 27.6617 5.25377C27.3733 5.02556 27.0019 4.80923 26.5169 4.78498L26.417 6.78248C26.3246 6.77786 26.3034 6.7294 26.4207 6.82221C26.5606 6.93285 26.7391 7.11346 27.0656 7.44904L28.499 6.05433ZM30.2163 7.81934L28.499 6.05433L27.0656 7.44904L28.7829 9.21406L30.2163 7.81934ZM31.3945 9.74592C31.3714 9.2813 31.1718 8.92154 30.959 8.63887C30.7633 8.37883 30.4905 8.10109 30.2163 7.81934L28.7829 9.21406C29.0937 9.5335 29.2595 9.70665 29.361 9.84148C29.4454 9.95368 29.4014 9.93276 29.397 9.84524L31.3945 9.74592ZM30.4133 11.7799C30.6581 11.4723 30.9021 11.1689 31.071 10.8907C31.2546 10.5883 31.4176 10.2105 31.3945 9.74591L29.397 9.84524C29.3927 9.75771 29.4344 9.73252 29.3615 9.85255C29.274 9.99678 29.1261 10.1855 28.8485 10.5342L30.4133 11.7799ZM29.8113 12.536L30.4133 11.7799L28.8485 10.5342L28.2466 11.2904L29.8113 12.536ZM28.6724 13.9667C28.7439 14.1368 28.6169 14.2054 28.7917 13.9039C28.9683 13.5993 29.2874 13.1941 29.8113 12.536L28.2466 11.2904C27.765 11.8953 27.3301 12.4374 27.0614 12.9009C26.7909 13.3675 26.5274 14.0252 26.8288 14.7418L28.6724 13.9667ZM30.4914 14.1536C29.6547 14.0676 29.1419 14.0122 28.8007 13.9253C28.463 13.8393 28.6009 13.7966 28.6724 13.9667L26.8288 14.7418C27.1301 15.4585 27.7844 15.7303 28.307 15.8634C28.8262 15.9957 29.5178 16.0641 30.2869 16.1431L30.4914 14.1536ZM31.3067 14.2374L30.4914 14.1536L30.2869 16.1431L31.1022 16.2269L31.3067 14.2374ZM33.4847 14.9792C33.167 14.6271 32.7758 14.4752 32.4253 14.393C32.1025 14.3173 31.7069 14.2785 31.3067 14.2374L31.1022 16.2269C31.5555 16.2735 31.8001 16.3006 31.9685 16.3401C32.1091 16.3731 32.0602 16.3859 32 16.3192L33.4847 14.9792ZM34 17.2217C34 16.8194 34.0019 16.4219 33.9596 16.0931C33.9136 15.736 33.8025 15.3313 33.4847 14.9792L32 16.3192C31.9398 16.2525 31.9575 16.2051 31.976 16.3484C31.9981 16.52 32 16.766 32 17.2217H34ZM34 19.7784V17.2217H32V19.7784H34ZM33.4847 22.0209C33.8025 21.6687 33.9136 21.2641 33.9596 20.907C34.0019 20.5782 34 20.1807 34 19.7784H32C32 20.2341 31.9981 20.4801 31.976 20.6517C31.9575 20.7949 31.9398 20.7475 32 20.6809L33.4847 22.0209ZM31.3067 22.7627C31.7069 22.7215 32.1025 22.6828 32.4253 22.6071C32.7758 22.5249 33.167 22.373 33.4847 22.0209L32 20.6809C32.0602 20.6142 32.1091 20.627 31.9685 20.66C31.8001 20.6995 31.5555 20.7266 31.1022 20.7732L31.3067 22.7627ZM30.492 22.8464L31.3067 22.7627L31.1022 20.7732L30.2875 20.8569L30.492 22.8464ZM28.673 23.0334C28.6015 23.2035 28.4635 23.1607 28.8013 23.0747C29.1425 22.9878 29.6553 22.9324 30.492 22.8464L30.2875 20.8569C29.5183 20.9359 28.8267 21.0044 28.3076 21.1366C27.7849 21.2697 27.1306 21.5415 26.8293 22.2582L28.673 23.0334ZM29.8119 24.464C29.288 23.8059 28.9689 23.4008 28.7923 23.0961C28.6175 22.7946 28.7445 22.8633 28.673 23.0334L26.8293 22.2582C26.528 22.9748 26.7915 23.6325 27.062 24.0991C27.3306 24.5626 27.7655 25.1047 28.2471 25.7096L29.8119 24.464ZM30.4133 25.2195L29.8119 24.464L28.2471 25.7096L28.8486 26.4652L30.4133 25.2195ZM31.3946 27.2535C31.4177 26.7889 31.2547 26.4111 31.0711 26.1087C30.9021 25.8305 30.6582 25.5271 30.4133 25.2195L28.8486 26.4652C29.1262 26.8139 29.274 27.0026 29.3616 27.1469C29.4345 27.2669 29.3927 27.2417 29.3971 27.1542L31.3946 27.2535ZM30.2164 29.1801C30.4905 28.8983 30.7634 28.6206 30.9591 28.3605C31.1718 28.0779 31.3715 27.7181 31.3946 27.2535L29.3971 27.1542C29.4014 27.0666 29.4455 27.0457 29.3611 27.1579C29.2596 27.2927 29.0938 27.4659 28.783 27.7853L30.2164 29.1801ZM28.4991 30.9451L30.2164 29.1801L28.783 27.7853L27.0656 29.5504L28.4991 30.9451ZM26.517 32.2144C27.002 32.1902 27.3733 31.9738 27.6617 31.7456C27.9276 31.5353 28.2105 31.2417 28.4991 30.9451L27.0656 29.5504C26.7391 29.8859 26.5606 30.0666 26.4208 30.1772C26.3035 30.27 26.3247 30.2215 26.4171 30.2169L26.517 32.2144ZM24.4181 31.1491C24.7349 31.4155 25.0456 31.6793 25.3311 31.8621C25.6409 32.0604 26.0319 32.2387 26.517 32.2144L26.4171 30.2169C26.5095 30.2123 26.5354 30.2584 26.4095 30.1778C26.2593 30.0816 26.0637 29.9197 25.7053 29.6184L24.4181 31.1491ZM23.891 30.7058L24.4181 31.1491L25.7053 29.6184L25.1782 29.1751L23.891 30.7058ZM22.4362 29.4825C22.2584 29.555 22.1898 29.4186 22.502 29.6111C22.8135 29.8032 23.226 30.1466 23.891 30.7058L25.1782 29.1751C24.5652 28.6596 24.0192 28.197 23.5519 27.9088C23.0853 27.621 22.4177 27.33 21.6808 27.6306L22.4362 29.4825ZM22.2521 31.3743C22.3362 30.5095 22.3908 29.9756 22.4791 29.6204C22.5675 29.2645 22.614 29.4099 22.4362 29.4825L21.6808 27.6306C20.9438 27.9312 20.6703 28.6061 20.5381 29.1382C20.4057 29.671 20.339 30.3835 20.2615 31.1807L22.2521 31.3743ZM22.171 32.2072L22.2521 31.3743L20.2615 31.1807L20.1804 32.0135L22.171 32.2072ZM21.4366 34.3978C21.7893 34.0777 21.94 33.6841 22.0208 33.3318C22.0952 33.0073 22.1319 32.6097 22.171 32.2072L20.1804 32.0135C20.1361 32.4693 20.1102 32.7154 20.0713 32.885C20.0389 33.0267 20.0257 32.9774 20.0926 32.9167L21.4366 34.3978ZM19.1851 34.9167C19.5895 34.9167 19.9889 34.9187 20.319 34.8761C20.6775 34.8298 21.0838 34.7179 21.4366 34.3978L20.0926 32.9167C20.1594 32.856 20.2072 32.8739 20.063 32.8925C19.8905 32.9148 19.6431 32.9167 19.1851 32.9167V34.9167ZM16.8148 34.9167H19.1851V32.9167H16.8148V34.9167ZM14.5634 34.3978C14.9162 34.7179 15.3225 34.8298 15.681 34.8761C16.0111 34.9187 16.4105 34.9167 16.8148 34.9167V32.9167C16.3569 32.9167 16.1095 32.9148 15.937 32.8925C15.7928 32.8739 15.8406 32.856 15.9074 32.9167L14.5634 34.3978ZM13.8289 32.2072C13.8681 32.6097 13.9048 33.0073 13.9792 33.3318C14.06 33.6841 14.2107 34.0777 14.5634 34.3978L15.9074 32.9167C15.9743 32.9774 15.9611 33.0267 15.9287 32.885C15.8898 32.7154 15.8639 32.4693 15.8195 32.0135L13.8289 32.2072ZM13.748 31.375L13.8289 32.2072L15.8195 32.0135L15.7386 31.1813L13.748 31.375ZM13.5639 29.4831C13.3861 29.4105 13.4325 29.2651 13.521 29.621C13.6092 29.9762 13.6638 30.5101 13.748 31.375L15.7386 31.1813C15.661 30.3841 15.5943 29.6716 15.462 29.1388C15.3298 28.6067 15.0562 27.9318 14.3193 27.6312L13.5639 29.4831ZM12.1091 30.7064C12.7741 30.1472 13.1866 29.8038 13.4981 29.6117C13.8102 29.4192 13.7417 29.5556 13.5639 29.4831L14.3193 27.6312C13.5824 27.3306 12.9148 27.6216 12.4482 27.9094C11.9808 28.1977 11.4348 28.6603 10.8219 29.1757L12.1091 30.7064ZM11.5818 31.1498L12.1091 30.7064L10.8219 29.1757L10.2946 29.6191L11.5818 31.1498ZM9.48299 32.2151C9.96802 32.2394 10.3591 32.0611 10.6688 31.8628C10.9544 31.68 11.2651 31.4162 11.5818 31.1498L10.2946 29.6191C9.93628 29.9204 9.74065 30.0823 9.59047 30.1785C9.4645 30.2591 9.49045 30.213 9.58284 30.2176L9.48299 32.2151ZM7.50085 30.9458C7.78948 31.2424 8.07231 31.536 8.3382 31.7463C8.62662 31.9745 8.99795 32.1909 9.48298 32.2151L9.58285 30.2176C9.67524 30.2222 9.69646 30.2707 9.57916 30.1779C9.43933 30.0672 9.26081 29.8866 8.93431 29.5511L7.50085 30.9458ZM5.78354 29.1807L7.50085 30.9458L8.93431 29.5511L7.21699 27.786L5.78354 29.1807ZM4.60534 27.2542C4.62844 27.7188 4.82812 28.0786 5.04084 28.3612C5.23654 28.6213 5.50941 28.899 5.78354 29.1807L7.21699 27.786C6.90618 27.4666 6.74035 27.2934 6.63888 27.1586C6.55444 27.0464 6.59852 27.0673 6.60287 27.1549L4.60534 27.2542ZM5.58662 25.2202C5.34179 25.5278 5.09781 25.8312 4.92888 26.1094C4.74525 26.4118 4.58224 26.7896 4.60534 27.2542L6.60287 27.1549C6.60722 27.2424 6.56544 27.2676 6.63833 27.1475C6.72592 27.0033 6.87376 26.8146 7.15135 26.4659L5.58662 25.2202ZM6.1886 24.464L5.58662 25.2202L7.15135 26.4659L7.75334 25.7097L6.1886 24.464ZM7.32748 23.0334C7.25596 22.8633 7.38298 22.7946 7.2082 23.0962C7.0316 23.4008 6.71245 23.806 6.1886 24.464L7.75334 25.7097C8.23491 25.1047 8.66983 24.5627 8.93851 24.0992C9.20899 23.6326 9.47246 22.9749 9.17114 22.2582L7.32748 23.0334ZM5.50848 22.8465C6.34516 22.9325 6.85797 22.9878 7.19919 23.0748C7.53692 23.1608 7.39899 23.2035 7.32748 23.0334L9.17114 22.2582C8.86982 21.5416 8.21553 21.2698 7.69288 21.1366C7.17372 21.0044 6.48213 20.936 5.71295 20.8569L5.50848 22.8465ZM4.69328 22.7627L5.50848 22.8465L5.71296 20.8569L4.89776 20.7732L4.69328 22.7627ZM2.51525 22.0209C2.83304 22.373 3.22419 22.5249 3.57472 22.6071C3.89748 22.6828 4.29308 22.7215 4.69328 22.7627L4.89776 20.7732C4.44445 20.7266 4.19992 20.6995 4.03151 20.66C3.89088 20.627 3.93984 20.6142 4 20.6809L2.51525 22.0209ZM2 19.7784C2 20.1807 1.99806 20.5782 2.04039 20.907C2.08635 21.2641 2.19747 21.6687 2.51525 22.0209L4 20.6809C4.06016 20.7475 4.04246 20.7949 4.02402 20.6517C4.00194 20.4801 4 20.2341 4 19.7784H2ZM2 17.2217L2 19.7784H4L4 17.2217H2ZM2.51525 14.9792C2.19747 15.3313 2.08635 15.736 2.04039 16.0931C1.99806 16.4219 2 16.8194 2 17.2217H4C4 16.766 4.00194 16.52 4.02402 16.3484C4.04246 16.2051 4.06016 16.2525 4 16.3192L2.51525 14.9792ZM4.69327 14.2374C4.29307 14.2785 3.89747 14.3173 3.57471 14.393C3.22419 14.4752 2.83303 14.6271 2.51525 14.9792L4 16.3192C3.93984 16.3859 3.89088 16.3731 4.03151 16.3401C4.19992 16.3006 4.44445 16.2735 4.89775 16.2269L4.69327 14.2374ZM4.79552 14.2322H4.79551V16.2322H4.79552V14.2322ZM5.50904 14.1536L4.69328 14.2374L4.89776 16.2269L5.71352 16.1431L5.50904 14.1536ZM7.32804 13.9666C7.39956 13.7965 7.53749 13.8392 7.19976 13.9253C6.85853 14.0122 6.34573 14.0676 5.50904 14.1536L5.71352 16.1431C6.48269 16.064 7.17429 15.9956 7.69344 15.8634C8.21609 15.7303 8.87038 15.4584 9.1717 14.7418L7.32804 13.9666ZM6.18917 12.536C6.71302 13.194 7.03217 13.5992 7.20876 13.9039C7.38354 14.2054 7.25653 14.1367 7.32804 13.9666L9.1717 14.7418C9.47302 14.0252 9.20955 13.3675 8.93907 12.9009C8.6704 12.4374 8.23548 11.8953 7.7539 11.2904L6.18917 12.536ZM5.58668 11.7792L6.18917 12.536L7.7539 11.2904L7.15142 10.5335L5.58668 11.7792ZM4.6054 9.74522C4.5823 10.2098 4.74531 10.5876 4.92894 10.89C5.09788 11.1682 5.34185 11.4716 5.58668 11.7792L7.15142 10.5335C6.87383 10.1848 6.72599 9.99608 6.6384 9.85185C6.5655 9.73182 6.60729 9.75701 6.60293 9.84454L4.6054 9.74522ZM5.78361 7.81865C5.50948 8.10039 5.2366 8.37813 5.04091 8.63817C4.82819 8.92084 4.6285 9.2806 4.6054 9.74522L6.60293 9.84454C6.59858 9.93206 6.55451 9.95299 6.63895 9.84078C6.74041 9.70595 6.90624 9.5328 7.21706 9.21336L5.78361 7.81865ZM7.50092 6.05363L5.78361 7.81865L7.21706 9.21336L8.93437 7.44834L7.50092 6.05363ZM9.48305 4.78428C8.99802 4.80853 8.62669 5.02486 8.33826 5.25307C8.07237 5.46344 7.78954 5.75699 7.50092 6.05363L8.93437 7.44834C9.26088 7.11276 9.43939 6.93215 9.57923 6.82151C9.69653 6.7287 9.6753 6.77717 9.58291 6.78178L9.48305 4.78428ZM11.5819 5.84961C11.2651 5.58323 10.9544 5.31936 10.6689 5.13655C10.3591 4.93825 9.96808 4.76003 9.48305 4.78428L9.58291 6.78178C9.49052 6.7864 9.46457 6.7403 9.59054 6.82094C9.74071 6.91708 9.93635 7.07899 10.2947 7.38033L11.5819 5.84961ZM12.1091 6.29297L11.5819 5.84961L10.2947 7.38033L10.8219 7.82369L12.1091 6.29297ZM13.564 7.51634C13.7418 7.44382 13.8103 7.58023 13.4981 7.3877C13.1867 7.1956 12.7742 6.85219 12.1091 6.29297L10.8219 7.82369C11.4349 8.33915 11.9809 8.80175 12.4482 9.08997C12.9148 9.37776 13.5824 9.6688 14.3194 9.3682L13.564 7.51634ZM13.748 5.62444C13.6639 6.48926 13.6093 7.02321 13.521 7.37835C13.4326 7.73429 13.3862 7.58887 13.564 7.51634L14.3194 9.3682C15.0563 9.0676 15.3298 8.39266 15.462 7.86061C15.5944 7.32776 15.6611 6.61526 15.7386 5.81813L13.748 5.62444ZM13.8289 4.79285L13.748 5.62444L15.7386 5.81813L15.8195 4.98653L13.8289 4.79285ZM14.5634 2.60227C14.2107 2.92238 14.06 3.31596 13.9792 3.66827C13.9048 3.99274 13.8681 4.39036 13.8289 4.79286L15.8195 4.98653C15.8639 4.53074 15.8898 4.28465 15.9287 4.11511C15.9611 3.97342 15.9743 4.02271 15.9074 4.08337L14.5634 2.60227ZM16.8148 2.08337C16.4105 2.08337 16.0111 2.08143 15.681 2.12403C15.3225 2.17029 14.9162 2.28216 14.5634 2.60227L15.9074 4.08337C15.8406 4.14404 15.7928 4.12619 15.937 4.10758C16.1095 4.08532 16.3569 4.08337 16.8148 4.08337V2.08337ZM19.1851 2.08337H16.8148V4.08337H19.1851V2.08337ZM21.4366 2.60227C21.0838 2.28216 20.6775 2.17029 20.319 2.12403C19.9889 2.08143 19.5895 2.08337 19.1851 2.08337V4.08337C19.6431 4.08337 19.8905 4.08532 20.063 4.10758C20.2072 4.12619 20.1594 4.14404 20.0926 4.08337L21.4366 2.60227ZM23 18.5C23 21.3795 20.7358 23.6667 18 23.6667V25.6667C21.8916 25.6667 25 22.4321 25 18.5H23ZM18 13.3334C20.7358 13.3334 23 15.6206 23 18.5H25C25 14.568 21.8916 11.3334 18 11.3334V13.3334ZM13 18.5C13 15.6206 15.2642 13.3334 18 13.3334V11.3334C14.1084 11.3334 11 14.568 11 18.5H13ZM18 23.6667C15.2642 23.6667 13 21.3795 13 18.5H11C11 22.4321 14.1084 25.6667 18 25.6667V23.6667Z" fill="#33363F"/>
</svg>
