<svg width="40" height="40" viewBox="0 0 40 40" fill="none" xmlns="http://www.w3.org/2000/svg">
<path d="M29.3093 22.6312L24.3093 20.1312C24.1124 20.0332 23.8932 19.9888 23.6738 20.0025C23.4543 20.0162 23.2423 20.0876 23.0593 20.2094L20.7639 21.7406C19.7103 21.1614 18.8432 20.2943 18.2639 19.2406L19.7952 16.9453C19.917 16.7622 19.9884 16.5503 20.0021 16.3308C20.0158 16.1113 19.9714 15.8921 19.8733 15.6953L17.3733 10.6953C17.2697 10.486 17.1095 10.31 16.911 10.1871C16.7124 10.0642 16.4834 9.99939 16.2499 10C14.5923 10 13.0026 10.6585 11.8305 11.8306C10.6584 13.0027 9.99989 14.5924 9.99989 16.25C10.004 19.8955 11.454 23.3904 14.0317 25.9682C16.6095 28.5459 20.1044 29.9959 23.7499 30C24.5707 30 25.3834 29.8383 26.1417 29.5242C26.8999 29.2102 27.5889 28.7498 28.1693 28.1694C28.7497 27.5891 29.21 26.9001 29.5241 26.1418C29.8382 25.3835 29.9999 24.5708 29.9999 23.75C30.0001 23.5178 29.9355 23.2901 29.8135 23.0925C29.6916 22.8949 29.5169 22.7352 29.3093 22.6312ZM23.7499 27.5C20.7672 27.4967 17.9077 26.3104 15.7986 24.2013C13.6895 22.0922 12.5032 19.2327 12.4999 16.25C12.4996 15.383 12.7998 14.5427 13.3494 13.8721C13.8989 13.2015 14.6638 12.742 15.5139 12.5719L17.3077 16.1656L15.7811 18.4375C15.6671 18.6086 15.597 18.8052 15.5771 19.0099C15.5572 19.2146 15.5881 19.4211 15.6671 19.6109C16.5614 21.7365 18.2524 23.4275 20.378 24.3219C20.5685 24.4044 20.7765 24.4381 20.9832 24.4201C21.19 24.4021 21.3891 24.3329 21.5624 24.2188L23.8452 22.6969L27.4389 24.4906C27.2675 25.3417 26.806 26.107 26.1332 26.6558C25.4605 27.2046 24.6181 27.503 23.7499 27.5ZM19.9999 3.75C17.1944 3.74939 14.4365 4.47514 11.9947 5.85661C9.55283 7.23808 7.51027 9.22821 6.06578 11.6333C4.62129 14.0384 3.82407 16.7764 3.75174 19.581C3.67941 22.3856 4.33442 25.1612 5.65301 27.6375L3.87957 32.9578C3.73267 33.3983 3.71135 33.871 3.81801 34.3229C3.92466 34.7749 4.15506 35.1881 4.4834 35.5165C4.81174 35.8448 5.22503 36.0752 5.67696 36.1819C6.12888 36.2885 6.60158 36.2672 7.04207 36.1203L12.3624 34.3469C14.5417 35.506 16.9565 36.1534 19.4234 36.24C21.8903 36.3266 24.3445 35.85 26.5997 34.8465C28.8549 33.8429 30.8518 32.3388 32.439 30.4483C34.0261 28.5577 35.1616 26.3304 35.7595 23.9355C36.3573 21.5406 36.4016 19.0409 35.8892 16.6263C35.3767 14.2117 34.3209 11.9455 32.8018 9.99987C31.2828 8.05421 29.3404 6.48019 27.1222 5.39727C24.904 4.31436 22.4683 3.75101 19.9999 3.75ZM19.9999 33.75C17.5827 33.7516 15.2079 33.1151 13.1155 31.9047C12.9623 31.8158 12.792 31.7606 12.6158 31.7425C12.4397 31.7245 12.2617 31.7441 12.0936 31.8L6.24989 33.75L8.19832 27.9062C8.25449 27.7383 8.27434 27.5604 8.25656 27.3842C8.23878 27.2081 8.18378 27.0377 8.0952 26.8844C6.57953 24.2639 5.97099 21.2165 6.36399 18.2149C6.75699 15.2133 8.12956 12.4253 10.2688 10.2834C12.408 8.14151 15.1943 6.76542 18.1953 6.36863C21.1964 5.97184 24.2446 6.57652 26.867 8.08888C29.4893 9.60124 31.5393 11.9367 32.6989 14.733C33.8585 17.5294 34.0628 20.6302 33.2803 23.5545C32.4977 26.4788 30.7719 29.0632 28.3707 30.9066C25.9695 32.75 23.0271 33.7495 19.9999 33.75Z" fill="#343330"/>
</svg>
